HIERARCHY
ROOT Hips
{
	OFFSET -0.001795 -0.223333 0.028219
	CHANNELS 6 Xposition Yposition Zposition Zrotation Yrotation Xrotation 
	JOINT LeftUpLeg
	{
		OFFSET 0.069520 -0.091406 -0.006815
		CHANNELS 3 Zrotation Yrotation Xrotation
		JOINT LeftLeg
		{
			OFFSET 0.034277 -0.375199 -0.004496
			CHANNELS 3 Zrotation Yrotation Xrotation
			JOINT LeftFoot
			{
				OFFSET -0.013596 -0.397961 -0.043693
				CHANNELS 3 Zrotation Yrotation Xrotation
				JOINT LeftToe
				{
					OFFSET 0.026358 -0.055791 0.119288
					CHANNELS 3 Zrotation Yrotation Xrotation
					End Site
					{
						OFFSET 0.000000 0.000000 0.000000
					}
				}
			}
		}
	}
	JOINT RightUpLeg
	{
		OFFSET -0.067670 -0.090522 -0.004320
		CHANNELS 3 Zrotation Yrotation Xrotation
		JOINT RightLeg
		{
			OFFSET -0.038290 -0.382569 -0.008850
			CHANNELS 3 Zrotation Yrotation Xrotation
			JOINT RightFoot
			{
				OFFSET 0.015774 -0.398415 -0.042312
				CHANNELS 3 Zrotation Yrotation Xrotation
				JOINT RightToe
				{
					OFFSET -0.025372 -0.048144 0.123348
					CHANNELS 3 Zrotation Yrotation Xrotation
					End Site
					{
						OFFSET 0.000000 0.000000 0.000000
					}
				}
			}
		}
	}
	JOINT Spine
	{
		OFFSET -0.002533 0.108963 -0.026696
		CHANNELS 3 Zrotation Yrotation Xrotation
		JOINT Spine1
		{
			OFFSET 0.005487 0.135180 0.001092
			CHANNELS 3 Zrotation Yrotation Xrotation
			JOINT Spine2
			{
				OFFSET 0.001457 0.052922 0.025425
				CHANNELS 3 Zrotation Yrotation Xrotation
				JOINT Neck
				{
					OFFSET -0.002778 0.213870 -0.042857
					CHANNELS 3 Zrotation Yrotation Xrotation
					JOINT Head
					{
						OFFSET 0.005152 0.064970 0.051349
						CHANNELS 3 Zrotation Yrotation Xrotation
						End Site
						{
							OFFSET 0.000000 0.000000 0.000000
						}
					}
				}
				JOINT LeftShoulder
				{
					OFFSET 0.078845 0.121749 -0.034090
					CHANNELS 3 Zrotation Yrotation Xrotation
					JOINT LeftArm
					{
						OFFSET 0.090977 0.030469 -0.008868
						CHANNELS 3 Zrotation Yrotation Xrotation
						JOINT LeftForeArm
						{
							OFFSET 0.259612 -0.012772 -0.027456
							CHANNELS 3 Zrotation Yrotation Xrotation
							JOINT LeftHand
							{
								OFFSET 0.249234 0.008986 -0.001171
								CHANNELS 3 Zrotation Yrotation Xrotation
								End Site
								{
									OFFSET 0.000000 0.000000 0.000000
								}
							}
						}
					}
				}
				JOINT RightShoulder
				{
					OFFSET -0.081759 0.118833 -0.038615
					CHANNELS 3 Zrotation Yrotation Xrotation
					JOINT RightArm
					{
						OFFSET -0.096012 0.032551 -0.009143
						CHANNELS 3 Zrotation Yrotation Xrotation
						JOINT RightForeArm
						{
							OFFSET -0.253742 -0.013329 -0.021401
							CHANNELS 3 Zrotation Yrotation Xrotation
							JOINT RightHand
							{
								OFFSET -0.255298 0.007772 -0.005559
								CHANNELS 3 Zrotation Yrotation Xrotation
								End Site
								{
									OFFSET 0.000000 0.000000 0.000000
								}
							}
						}
					}
				}
			}
		}
	}
}
MOTION
Frames: 8
Frame Time: 0.050000
-0.297079 0.685460 0.344817 -175.538860 38.627155 -163.024295 101.923019 -20.784409 -87.273679 -64.364911 -44.974724 -23.051326 147.576282 39.612629 132.375962 0.000000 0.000000 0.000000 60.856283 -22.920541 -90.252243 -107.453055 -6.751820 34.590242 66.120077 78.251627 27.803734 0.000000 0.000000 0.000000 -93.405987 -18.621994 86.740447 -21.321354 1.485760 -29.297823 108.678638 61.673408 92.359395 7.219294 3.071482 -20.938632 0.000000 0.000000 0.000000 2.912147 -40.679438 -8.884851 -52.173017 -28.305424 0.604390 -0.180672 -30.465521 -7.785167 0.000000 0.000000 0.000000 4.769775 24.353865 31.570923 39.559570 71.119680 31.496521 -33.003269 6.821394 -4.522850 0.000000 0.000000 0.000000 
-0.291549 0.687939 0.326785 -175.552071 36.939396 -164.524682 93.661352 -22.967273 -86.812737 -73.330219 -46.600642 -11.414818 153.114845 41.342628 132.370909 0.000000 0.000000 0.000000 54.899386 -26.265760 -86.591419 -115.916200 -7.808749 39.964779 117.522458 81.737056 77.896183 0.000000 0.000000 0.000000 -92.732791 -19.732674 86.192747 -22.023357 1.200216 -28.626026 108.047262 61.639930 91.636242 8.108714 1.809609 -20.501469 0.000000 0.000000 0.000000 0.134927 -41.222444 -13.518988 -53.744831 -21.750112 1.172830 -0.415898 -28.855951 -6.957328 0.000000 0.000000 0.000000 5.759488 24.060093 34.045250 39.123258 72.082576 30.845219 -32.450265 5.383029 -4.285585 0.000000 0.000000 0.000000 
-0.286018 0.694514 0.308859 -175.497699 35.922948 -165.681096 84.877592 -25.296836 -85.002800 -81.879644 -45.915158 0.565804 154.590909 43.126559 131.576877 0.000000 0.000000 0.000000 50.135663 -28.323940 -82.963807 -122.114292 -9.053698 43.253390 144.568457 76.542606 105.591652 0.000000 0.000000 0.000000 -89.207158 -21.383342 84.877104 -22.993616 0.612312 -27.399600 102.590550 62.667168 86.513775 8.611708 0.422216 -19.636366 0.000000 0.000000 0.000000 -1.737166 -41.843229 -16.831456 -53.820267 -16.658307 1.396092 -2.139207 -28.945220 -6.203855 0.000000 0.000000 0.000000 6.808364 23.247347 35.418368 39.685487 72.966581 30.832025 -32.175375 5.535567 -4.458935 0.000000 0.000000 0.000000 
-0.280698 0.706035 0.292097 -175.312759 33.561870 -167.795075 72.160707 -28.429915 -81.077903 -91.604660 -42.575884 16.716319 152.118698 46.157817 129.081092 0.000000 0.000000 0.000000 46.004489 -30.856072 -80.410251 -128.083461 -9.421582 46.603962 139.590317 67.523817 105.540761 0.000000 0.000000 0.000000 -89.666589 -22.043114 84.960963 -23.526734 0.663797 -26.106038 103.371428 62.933643 86.722308 9.332859 -1.785883 -18.627248 0.000000 0.000000 0.000000 -4.290619 -43.065236 -21.480422 -53.256797 -9.493845 1.585214 -1.982430 -27.676867 -5.546169 0.000000 0.000000 0.000000 8.133191 22.285057 37.682764 36.165291 73.296089 27.022668 -32.486064 5.568014 -4.534645 0.000000 0.000000 0.000000 
-0.274932 0.724382 0.277196 -175.328113 31.603681 -168.902660 59.860005 -30.420441 -74.892612 -94.304157 -37.936890 28.206248 144.664026 50.694201 122.554152 0.000000 0.000000 0.000000 47.332625 -31.415555 -81.676085 -134.448719 -13.075494 45.524462 119.494333 51.786730 98.710405 0.000000 0.000000 0.000000 -88.065154 -23.044885 84.526254 -23.287252 0.174937 -25.101709 100.687877 62.973628 84.312450 7.737095 -4.553921 -16.350761 0.000000 0.000000 0.000000 -5.420292 -43.280385 -25.555166 -53.422335 -4.355237 1.052382 -2.121429 -26.840570 -5.074778 0.000000 0.000000 0.000000 9.755274 22.015159 40.484963 26.989622 72.832567 18.173023 -33.671032 6.458279 -5.027154 0.000000 0.000000 0.000000 
-0.268559 0.745982 0.264578 -175.010154 30.044548 -170.354345 44.706012 -30.421141 -64.681665 -91.616359 -31.641053 39.073357 128.623429 56.901678 105.821507 0.000000 0.000000 0.000000 48.764414 -31.922843 -83.125569 -138.025483 -17.437410 44.176636 98.909246 35.076679 94.906081 0.000000 0.000000 0.000000 -83.640229 -24.747395 82.604257 -24.858887 -0.959595 -22.953983 96.334270 63.276552 79.521710 6.415776 -7.127037 -14.908322 0.000000 0.000000 0.000000 -7.574542 -46.596796 -30.627881 -51.821064 3.813703 0.967603 -0.412563 -27.192930 -5.316476 0.000000 0.000000 0.000000 11.867753 21.315071 43.803392 20.304572 70.642729 10.675237 -34.796379 7.929013 -5.616056 0.000000 0.000000 0.000000 
-0.261170 0.768168 0.254040 -175.079989 27.596812 -172.053331 30.179939 -28.070944 -54.440271 -82.305605 -26.096681 47.784372 98.835837 57.776449 74.793241 0.000000 0.000000 0.000000 50.490420 -31.856425 -83.691377 -138.310206 -20.101022 44.458251 84.458919 28.619366 89.224973 0.000000 0.000000 0.000000 -79.935469 -26.046564 81.977376 -26.014476 -2.607733 -21.441073 91.056155 62.409345 74.080858 3.498088 -9.458316 -12.135392 0.000000 0.000000 0.000000 -9.962400 -48.054218 -34.924733 -48.811502 10.356940 1.144378 -1.911150 -26.989151 -4.210161 0.000000 0.000000 0.000000 11.581449 20.875627 44.294735 19.210986 69.243972 9.620364 -35.274698 8.589388 -5.843127 0.000000 0.000000 0.000000 
-0.252605 0.790465 0.245316 -175.338491 27.075647 -173.455656 20.470526 -24.043771 -46.231118 -70.305309 -23.809082 51.306349 75.781257 48.144953 51.662442 0.000000 0.000000 0.000000 50.087279 -31.069784 -81.380712 -132.768832 -20.777934 44.947921 77.913649 26.419093 83.361916 0.000000 0.000000 0.000000 -76.507826 -26.961268 79.085537 -27.729009 -3.353136 -17.497493 84.038921 63.467767 65.407999 2.129844 -10.726897 -10.488863 0.000000 0.000000 0.000000 -13.638627 -48.034139 -36.569168 -46.697505 16.047727 0.794863 -0.489503 -27.975159 -4.388420 0.000000 0.000000 0.000000 15.536543 20.954613 45.775734 16.902310 66.431609 4.581658 -33.805659 9.737443 -5.821067 0.000000 0.000000 0.000000 
